<?xml version="1.0" standalone="no"?>
<!DOCTYPE svg PUBLIC "-//W3C//DTD SVG 20010904//EN"
 "http://www.w3.org/TR/2001/REC-SVG-20010904/DTD/svg10.dtd">
<svg version="1.0" xmlns="http://www.w3.org/2000/svg"
 width="1408.000000pt" height="768.000000pt" viewBox="0 0 1408.000000 768.000000"
 preserveAspectRatio="xMidYMid meet">

<g transform="translate(0.000000,768.000000) scale(0.100000,-0.100000)"
fill="#000000" stroke="none">
<path d="M0 3840 l0 -3840 7040 0 7040 0 0 3840 0 3840 -7040 0 -7040 0 0
-3840z m8208 2063 c-33 -205 -112 -659 -115 -663 -2 -2 -37 31 -76 74 l-73 79
-28 -67 c-129 -304 -389 -466 -745 -466 l-87 0 4 -62 c2 -35 5 -69 8 -77 6
-20 47 -9 182 48 176 74 220 85 352 85 90 0 132 -5 195 -22 282 -81 493 -280
612 -578 154 -383 88 -870 -182 -1335 -85 -147 -170 -256 -294 -379 -171 -169
-308 -248 -451 -257 -91 -7 -151 8 -295 74 -72 33 -117 47 -161 51 -57 4 -69
1 -186 -50 -69 -31 -149 -61 -178 -68 -214 -51 -483 110 -738 442 -257 334
-419 838 -383 1190 45 448 281 771 656 899 62 21 88 24 225 24 172 0 199 -6
385 -86 131 -56 128 -57 99 53 -31 114 -49 156 -114 257 -60 94 -164 194 -262
253 -38 22 -68 43 -68 47 0 4 43 52 94 107 l95 99 61 -60 c118 -116 221 -284
289 -471 l29 -79 7 50 c23 176 88 331 180 433 78 86 218 169 379 226 17 6 11
15 -47 70 -37 35 -67 68 -67 74 0 5 42 15 93 22 50 8 200 30 332 51 302 46
278 45 273 12z"/>
<path d="M7895 5789 c-99 -15 -184 -28 -190 -28 -5 -1 17 -28 50 -61 32 -33
57 -61 54 -63 -2 -2 -60 -23 -129 -46 -157 -54 -233 -91 -310 -154 -98 -80
-158 -188 -194 -344 -14 -64 -10 -77 15 -46 8 9 106 102 218 206 l204 189 26
-33 c14 -19 26 -36 26 -40 0 -3 -69 -71 -154 -150 -85 -79 -182 -170 -215
-202 l-61 -58 55 5 c158 16 294 78 395 180 76 77 128 166 185 316 18 47 34 86
35 88 1 1 29 -25 63 -59 70 -71 61 -83 96 126 32 193 33 198 21 200 -5 1 -91
-10 -190 -26z"/>
<path d="M7565 4760 c-80 -12 -128 -28 -263 -85 -220 -93 -294 -96 -469 -19
-176 76 -239 95 -339 101 -344 20 -654 -214 -778 -589 -47 -141 -60 -240 -53
-412 9 -219 73 -452 187 -679 182 -361 488 -662 709 -697 72 -12 129 2 286 71
110 48 126 53 195 53 80 -1 110 -9 278 -83 79 -35 102 -41 162 -41 117 0 220
51 372 183 140 122 271 299 377 506 229 449 259 889 84 1236 -65 129 -139 220
-244 301 -145 111 -358 177 -504 154z m-473 -320 c80 -23 129 -89 129 -175 0
-29 -6 -67 -15 -83 -17 -33 -66 -77 -96 -87 -19 -6 -20 -15 -20 -171 0 -141 2
-164 15 -164 25 0 97 -41 125 -70 l26 -28 184 99 185 99 6 55 c18 158 191 231
303 127 79 -74 73 -220 -12 -281 -61 -43 -156 -44 -214 -1 -35 26 -14 34 -238
-88 l-165 -90 0 -69 c0 -53 -6 -80 -26 -120 l-25 -51 108 -125 107 -125 60 5
c76 7 102 0 147 -39 65 -57 81 -135 45 -214 -60 -133 -250 -138 -322 -9 -26
45 -30 114 -10 162 13 31 12 32 -96 157 -77 90 -112 124 -123 120 -8 -4 -41
-14 -73 -22 -53 -14 -63 -13 -115 2 -31 9 -64 19 -72 21 -9 3 -55 -42 -122
-119 l-108 -124 15 -36 c73 -174 -141 -336 -282 -213 -44 39 -63 82 -63 143 0
61 25 110 74 146 38 28 46 29 115 26 l74 -4 101 114 c55 63 104 119 108 126 4
7 -4 34 -17 61 -20 38 -25 64 -25 119 l0 71 -185 98 -184 98 -44 -25 c-32 -19
-58 -26 -97 -26 -176 0 -246 218 -103 327 31 24 45 28 103 28 58 0 72 -4 103
-28 46 -35 77 -94 77 -146 0 -22 5 -43 12 -48 7 -4 91 -51 187 -104 l176 -96
43 38 c24 21 62 44 84 51 l41 14 2 158 1 158 -38 19 c-58 30 -91 81 -96 148
-6 87 40 156 124 186 48 17 59 18 106 5z"/>
</g>
</svg>
